<svg xmlns="http://www.w3.org/2000/svg" viewBox="0 0 332.874 43.346"><path d="M26.768 0H0l9.313 16.71c1.508 2.273 3.379 3.217 6.789 3.217h6.411l-5.47-10.385h8.473c6.933 0 12.224 3.719 13.392 10.385H50.81C49.149 8.594 38.686 0 26.768 0Z" style="fill:#004ea2"/><path d="M38.908 23.417c-1.168 6.666-6.459 10.385-13.392 10.385h-8.473l5.47-10.385h-6.411c-3.41 0-5.281.946-6.789 3.219L0 43.346h26.768c11.918 0 22.382-8.595 24.043-19.929H38.909Z" style="fill:#00b4ed"/><path d="M59.581 6.335c-4.273 0-7.002 2.169-7.002 6.121l.006.908h14.357V38.03h10.413V13.364h14.388V6.335H59.581ZM168.407 6.335h-21.486a8.976 8.976 0 0 0-8.974 8.975v13.746a8.974 8.974 0 0 0 8.974 8.975h21.484a8.974 8.974 0 0 0 8.975-8.974V15.311c0-4.956-4.017-8.976-8.973-8.976Zm-17.836 7.029h14.191c1.221 0 2.213.991 2.213 2.213v13.211a2.214 2.214 0 0 1-2.213 2.213h-14.191a2.213 2.213 0 0 1-2.213-2.213V15.577c0-1.222.991-2.213 2.213-2.213ZM124.689 27.933h1.185c2.323 0 4.273-.721 5.636-2.084 1.468-1.469 2.244-3.633 2.244-6.254v-4.284a8.976 8.976 0 0 0-8.975-8.976H103.37a8.974 8.974 0 0 0-8.975 8.975v22.721h10.364V13.364h13.919c1.898 0 3.111.332 3.826 1.05.564.561.838 1.401.835 2.569v1.018c.003 1.23-.256 2.064-.812 2.623-.675.676-1.827.988-3.624.988h-9.467c-.818 0-1.472.104-1.629.42-.152.301.218.867.83 1.457l15.14 14.541h11.768s-10.349-9.621-10.856-10.098ZM203.491 20.926c-.486.131-1.022.233-1.608.306s-1.182.131-1.789.175-1.206.066-1.799.066-1.132-.014-1.618-.044c-.6-.029-1.047-.175-1.339-.438s-.44-.692-.44-1.291V9.375c0-.291.021-.528.064-.711.043-.182.119-.324.226-.426s.257-.171.45-.208.44-.055.74-.055h5.934c.157 0 .268.026.333.076.064.051.096.157.096.318v1.728c0 .161-.032.262-.096.306-.064.044-.176.066-.333.066h-4.178c-.143 0-.228.029-.257.087a.491.491 0 0 0-.043.219v7.809c0 .161.025.263.076.306.049.044.16.074.331.088.729.044 1.525.033 2.389-.033a18.444 18.444 0 0 0 2.432-.339c.186-.029.311-.026.375.011s.111.135.14.296l.257 1.531c.029.161.017.27-.033.328-.05.058-.153.109-.31.153Zm8.462 6.388h-2.164c-.157 0-.26-.026-.31-.076-.051-.051-.076-.157-.076-.318V16.682h-1.692v9.428c0 .19-.026.303-.076.339s-.153.055-.31.055h-2.015c-.157 0-.264-.019-.321-.055s-.086-.149-.086-.339V7.122c0-.16.029-.266.086-.317s.164-.076.321-.076h2.015c.156 0 .26.025.31.076s.076.157.076.317v7.088h1.692V6.729c0-.161.029-.266.086-.318.057-.051.164-.076.321-.076h2.143c.157 0 .26.026.311.076.05.051.075.157.075.318V26.92c0 .161-.025.266-.075.318-.051.051-.153.076-.311.076ZM236.703 18.367h-7.949v8.356c0 .292-.143.438-.428.438h-2.121c-.3 0-.45-.146-.45-.438v-8.356h-7.456c-.186 0-.303-.04-.353-.121-.05-.08-.076-.2-.076-.361v-1.51c0-.16.026-.281.076-.361s.167-.121.353-.121h12.534c.2-.846.353-1.775.46-2.789s.161-2.052.161-3.118c0-.131-.021-.248-.064-.35s-.171-.153-.385-.153h-10.134c-.114 0-.221-.019-.321-.055s-.15-.149-.15-.339V7.361c0-.175.046-.281.139-.317s.203-.055.332-.055h12.02c.543 0 .928.121 1.157.361.228.241.343.667.343 1.279 0 1.226-.057 2.465-.171 3.719a28.866 28.866 0 0 1-.536 3.544h3.021c.3 0 .45.161.45.481v1.51c0 .321-.15.481-.45.481ZM260.596 23.639h-18.404c-.186 0-.304-.044-.354-.131a.655.655 0 0 1-.075-.328v-1.575c0-.161.025-.277.075-.35s.168-.11.354-.11h4.178v-5.862c0-.161.029-.27.086-.328.057-.058.171-.087.343-.087h2.121c.171 0 .286.029.343.087.057.059.086.168.086.328v5.862h1.713v-5.862c0-.161.029-.27.086-.328.057-.058.171-.087.343-.087h2.1c.186 0 .307.029.364.087.057.059.086.168.086.328v5.862h6.556c.3 0 .45.153.45.46v1.575c0 .306-.15.46-.45.46Zm-2.443-5.294c-.029.219-.079.35-.15.394-.071.044-.214.051-.428.021l-1.886-.196c-.228-.029-.353-.099-.374-.208a1.002 1.002 0 0 1 .01-.383c.1-.525.186-1.09.257-1.695.071-.605.128-1.217.171-1.838.043-.62.071-1.239.086-1.859.014-.62.021-1.214.021-1.783 0-.218-.032-.376-.096-.47-.064-.094-.261-.142-.59-.142h-10.391c-.143 0-.258-.018-.343-.054s-.128-.15-.128-.339V8.065c0-.161.043-.263.128-.306a.756.756 0 0 1 .343-.066h12.534c.514 0 .896.12 1.146.361.25.241.375.667.375 1.28 0 1.925-.064 3.642-.193 5.152-.128 1.509-.293 2.796-.493 3.861ZM281.692 15.391h-4.907v1.334h7.691a.56.56 0 0 1 .321.088c.086.059.129.175.129.35v1.466c0 .321-.151.482-.45.482h-18.382c-.201 0-.321-.036-.364-.11-.044-.073-.065-.196-.065-.372v-1.466c0-.16.029-.273.086-.339.056-.066.171-.099.343-.099h7.713v-1.334h-3.449c-.629 0-1.075-.146-1.339-.438-.264-.291-.396-.729-.396-1.312v-5.6c0-.627.125-1.039.375-1.236s.675-.296 1.275-.296h11.312c.271 0 .407.138.407.415v1.444c0 .161-.029.27-.086.328-.057.059-.164.088-.321.088h-9.62c-.228 0-.343.117-.343.35v.7h9.62c.3 0 .45.153.45.459v1.313c0 .306-.15.459-.45.459h-9.62v.722c0 .233.114.35.343.35h9.727c.314 0 .471.124.471.372v1.443c0 .292-.157.438-.471.438Zm-6.406 12.141c-1.099 0-2.077-.099-2.935-.295-.857-.197-1.578-.463-2.164-.799-.586-.336-1.029-.737-1.329-1.203-.3-.467-.45-.963-.45-1.488s.151-1.017.45-1.476c.3-.46.742-.857 1.329-1.192.585-.336 1.306-.598 2.164-.788.857-.189 1.835-.284 2.935-.284s2.078.095 2.935.284c.857.19 1.578.453 2.164.788.585.336 1.029.732 1.329 1.192.3.459.45.952.45 1.476s-.15 1.021-.45 1.488c-.3.466-.743.867-1.329 1.203-.586.336-1.307.602-2.164.799-.857.196-1.835.295-2.935.295Zm0-5.25c-1.328 0-2.317.146-2.967.438-.65.292-.975.642-.975 1.05 0 .379.325.722.975 1.028.65.306 1.639.459 2.967.459s2.317-.153 2.968-.459c.65-.306.974-.649.974-1.028 0-.408-.325-.758-.974-1.05-.65-.292-1.639-.438-2.968-.438ZM308.37 17.71h-18.382c-.2 0-.321-.036-.364-.109-.043-.073-.064-.189-.064-.35v-1.575c0-.161.029-.277.086-.351.057-.073.171-.109.343-.109h6.942v-3.325c0-.16.032-.269.096-.328s.182-.088.353-.088h2.1c.171 0 .286.029.343.088.056.059.086.168.086.328v3.325h8.462c.157 0 .271.033.343.099s.108.186.108.361v1.575c0 .161-.029.277-.086.35-.057.074-.178.109-.364.109Zm-9.191 9.735c-1.014 0-1.939-.109-2.774-.328-.836-.218-1.561-.518-2.174-.897-.615-.38-1.089-.835-1.425-1.368a3.155 3.155 0 0 1-.503-1.717c0-.627.168-1.203.503-1.728.336-.525.81-.977 1.425-1.356.614-.379 1.339-.678 2.174-.897.835-.219 1.76-.328 2.774-.328 1 0 1.921.109 2.764.328.842.218 1.571.518 2.185.897.614.38 1.089.832 1.425 1.356.336.525.503 1.102.503 1.728 0 .613-.168 1.185-.503 1.717-.336.533-.811.988-1.425 1.368-.614.379-1.343.678-2.185.897-.843.219-1.764.328-2.764.328Zm6.513-13.563c-.029.218-.086.346-.171.383s-.229.048-.428.033l-1.928-.175c-.186-.029-.29-.088-.311-.175a.844.844 0 0 1 .011-.35 24.992 24.992 0 0 0 .344-2.997c.014-.262.021-.459.021-.59 0-.218-.029-.376-.086-.47-.057-.094-.221-.142-.493-.142h-9.684a.8.8 0 0 1-.332-.055c-.079-.036-.118-.149-.118-.339V7.299c0-.16.039-.262.118-.306a.687.687 0 0 1 .332-.066h11.676c.515 0 .892.114 1.136.339.243.226.364.617.364 1.171 0 .802-.025 1.644-.075 2.526s-.175 1.856-.375 2.92Zm-6.513 7.328c-.6 0-1.143.055-1.628.164-.486.109-.9.256-1.243.438-.343.183-.608.39-.793.623-.186.233-.278.474-.278.722 0 .233.093.463.278.689.186.226.45.43.793.613.343.182.757.328 1.243.438.485.109 1.028.164 1.628.164s1.143-.055 1.628-.164.9-.256 1.243-.438c.343-.183.607-.387.792-.613.186-.226.278-.455.278-.689 0-.248-.093-.489-.278-.722-.186-.233-.45-.44-.792-.623-.343-.182-.757-.328-1.243-.438s-1.028-.164-1.628-.164ZM324.154 21.888c-.186.233-.443.219-.771-.044a7.46 7.46 0 0 1-.922-.853 17.966 17.966 0 0 1-1.039-1.214 16.37 16.37 0 0 1-1.832-2.921 19.701 19.701 0 0 1-.857 1.674 18.1 18.1 0 0 1-1.007 1.564c-.358.495-.732.955-1.125 1.378-.393.423-.782.787-1.168 1.094-.2.161-.346.248-.439.263-.093.015-.211-.051-.353-.197l-1.179-1.246c-.114-.117-.171-.23-.171-.339 0-.11.086-.252.257-.427a15.248 15.248 0 0 0 2.261-2.811 14.603 14.603 0 0 0 1.574-3.336c.301-.933.522-1.947.665-3.04s.214-2.282.214-3.566c0-.161.025-.281.075-.361.05-.08.175-.12.375-.12l2.057.066c.2.014.321.062.364.142s.064.208.064.383c0 1.794-.136 3.427-.407 4.9.157.613.4 1.258.729 1.936.328.678.696 1.327 1.103 1.947.407.62.828 1.193 1.264 1.718.435.525.839.941 1.211 1.247.199.161.296.303.289.426-.008.124-.075.266-.203.427l-1.029 1.312Zm8.291-5.184h-2.656v10.194c0 .175-.025.288-.075.339-.05.051-.153.076-.311.076h-2.164c-.158 0-.268-.026-.332-.076-.065-.051-.097-.164-.097-.339V6.75c0-.16.032-.27.097-.328.064-.059.174-.088.332-.088h2.164c.157 0 .261.029.311.088.05.058.075.168.075.328v7.46h2.656c.129 0 .232.018.311.054.078.036.118.157.118.361v1.663c0 .175-.04.288-.118.339a.564.564 0 0 1-.311.076ZM198.556 37.358c-.15.116-.32.217-.51.302a3.869 3.869 0 0 1-.61.211 5.553 5.553 0 0 1-1.371.17h-1.02c-.094 0-.152-.01-.171-.032-.019-.021-.03-.071-.03-.15V32.26c0-.1.01-.16.03-.179s.082-.028.188-.028h1.421c1.087 0 1.895.291 2.425.874.235.254.408.549.523.885.114.336.171.743.171 1.219 0 .492-.09.94-.272 1.342-.181.402-.439.73-.773.985Zm-.367-3.836c-.357-.419-.931-.628-1.722-.628h-.652v4.296h.376c.323 0 .627-.038.911-.114s.536-.2.752-.37c.251-.18.444-.411.581-.695s.205-.62.205-1.013c0-.318-.036-.6-.109-.845a1.613 1.613 0 0 0-.343-.632ZM203.5 38.01c-.039 0-.064-.004-.075-.012s-.017-.027-.017-.059v-.358c-.139.186-.316.324-.531.417s-.431.139-.648.139c-.228 0-.439-.03-.631-.087a1.34 1.34 0 0 1-.493-.263 1.213 1.213 0 0 1-.322-.432 1.44 1.44 0 0 1-.118-.6c0-.271.05-.507.15-.711.101-.204.258-.374.472-.508.215-.135.489-.236.824-.302a6.372 6.372 0 0 1 1.212-.099c0-.101-.011-.202-.033-.302a.79.79 0 0 0-.113-.271.614.614 0 0 0-.222-.195.767.767 0 0 0-.359-.075c-.251 0-.478.032-.681.095a2.636 2.636 0 0 0-.573.254c-.089.054-.149.077-.179.072-.031-.006-.046-.034-.046-.087v-.604c0-.022 0-.044-.004-.068a.087.087 0 0 1 .013-.059.45.45 0 0 1 .125-.087c.19-.09.383-.164.581-.223s.447-.087.748-.087c.563 0 .98.13 1.25.389.271.259.406.667.406 1.223v1.882c0 .148 0 .303.004.465.002.161.013.303.03.424.01.085-.02.127-.092.127h-.677Zm-1.48-1.906c-.267.143-.401.357-.401.644 0 .201.062.352.184.452.122.101.287.151.493.151a.96.96 0 0 0 .765-.334c.192-.223.288-.569.288-1.041v-.087c-.619 0-1.062.071-1.33.215ZM209.184 36.017c0 .042-.013.074-.038.095s-.051.032-.079.032h-2.75c.028.355.145.644.351.869.206.225.487.338.844.338.184 0 .393-.022.628-.068.234-.045.448-.122.644-.234.038-.022.064-.018.075.008s.017.061.017.103v.548c0 .048-.009.085-.026.111s-.05.053-.1.079a2.009 2.009 0 0 1-.589.183 4.145 4.145 0 0 1-.69.056c-.691 0-1.214-.198-1.567-.592-.354-.395-.531-.973-.531-1.735 0-.286.038-.567.117-.842.078-.275.196-.521.355-.738.158-.218.361-.392.606-.524.245-.133.535-.199.869-.199.34 0 .628.061.865.183s.431.286.581.492.259.447.326.723c.067.275.1.569.1.881 0 .037 0 .079-.004.127l-.004.103Zm-1.831-1.747a.834.834 0 0 0-.401.095 1.004 1.004 0 0 0-.301.247 1.28 1.28 0 0 0-.205.349 1.867 1.867 0 0 0-.113.397h1.914c0-.106-.018-.222-.054-.349a1.263 1.263 0 0 0-.162-.354c-.073-.108-.165-.199-.276-.274s-.245-.111-.401-.111ZM211.926 39.249c-.223 0-.443-.014-.66-.044a3.333 3.333 0 0 1-.644-.154.689.689 0 0 1-.105-.064c-.019-.015-.029-.042-.029-.079l.042-.643c.011-.101.067-.127.167-.08a3.033 3.033 0 0 0 1.238.271c.362 0 .65-.09.865-.271s.331-.426.347-.738a1.402 1.402 0 0 1-.51.333 1.617 1.617 0 0 1-.577.111c-.279 0-.538-.051-.777-.154a1.863 1.863 0 0 1-1.024-1.084 2.302 2.302 0 0 1-.146-.834c0-.784.166-1.363.497-1.739s.807-.564 1.426-.564c.111 0 .224.013.339.039.114.026.224.061.33.103.106.042.203.091.293.147.089.055.167.115.234.179l-.008-.278c-.006-.042-.003-.072.008-.087.011-.016.045-.024.101-.024h.66c.066 0 .1.039.1.119v3.28c0 .715-.184 1.27-.552 1.664-.368.394-.906.592-1.614.592Zm.209-4.956c-.351 0-.62.122-.807.365-.187.244-.279.631-.279 1.16 0 .201.027.381.083.54.055.159.132.293.23.402.098.108.209.191.335.25s.258.087.397.087c.156 0 .301-.029.435-.087s.251-.143.351-.254c.1-.111.179-.247.238-.405.058-.159.088-.342.088-.548 0-.482-.094-.854-.284-1.116s-.451-.393-.786-.393ZM218.472 38.01a.119.119 0 0 1-.071-.02c-.019-.014-.026-.033-.021-.06v-.319c-.145.17-.322.3-.531.391a1.64 1.64 0 0 1-.656.135c-.54 0-.945-.151-1.212-.453s-.402-.733-.402-1.294v-2.661c0-.026.01-.051.03-.075s.043-.035.071-.035h.685c.028 0 .053.013.075.039s.034.053.034.079v2.525c0 .398.068.678.205.842.136.164.339.247.606.247a.97.97 0 0 0 .748-.326c.198-.217.296-.54.296-.969v-2.327c0-.026.01-.051.03-.075s.043-.035.071-.035h.694c.027 0 .051.014.07.043.02.03.03.057.03.083v3.24c0 .164.002.326.008.484.006.159.009.305.009.437 0 .069-.031.103-.092.103h-.677ZM225.285 32.864v5.059c0 .063-.034.095-.1.095h-.744c-.066 0-.1-.032-.1-.095v-5.059h-1.622a.098.098 0 0 1-.071-.028.099.099 0 0 1-.029-.075v-.636a.09.09 0 0 1 .029-.067.102.102 0 0 1 .071-.028h4.197a.1.1 0 0 1 .07.028c.02.018.03.041.03.067v.636c0 .069-.034.103-.1.103h-1.631ZM229.297 34.421a2.277 2.277 0 0 0-.292-.052.748.748 0 0 0-.623.207c-.103.103-.182.224-.235.362s-.087.286-.104.444c-.017.159-.026.31-.026.453v2.064c0 .074-.033.111-.1.111h-.694c-.061 0-.092-.039-.092-.119v-3.2c0-.17-.002-.339-.008-.508s-.009-.318-.009-.445c0-.047.009-.078.026-.091.017-.013.044-.019.083-.019h.694c.039 0 .062.005.067.016a.14.14 0 0 1 .008.056v.352c.039-.064.09-.128.154-.192s.134-.121.209-.172c.075-.05.152-.09.231-.119a.604.604 0 0 1 .217-.044c.106 0 .202 0 .288.003a.605.605 0 0 1 .272.084c.028.01.044.027.05.051s.009.046.009.067v.596a.142.142 0 0 1-.025.071c-.017.026-.05.034-.101.024ZM232.751 38.01c-.039 0-.064-.004-.075-.012s-.017-.027-.017-.059v-.358c-.139.186-.316.324-.531.417s-.431.139-.648.139c-.228 0-.439-.03-.631-.087a1.34 1.34 0 0 1-.493-.263 1.213 1.213 0 0 1-.322-.432 1.44 1.44 0 0 1-.118-.6c0-.271.05-.507.15-.711.101-.204.258-.374.472-.508.215-.135.489-.236.824-.302a6.372 6.372 0 0 1 1.212-.099c0-.101-.011-.202-.033-.302a.79.79 0 0 0-.113-.271.614.614 0 0 0-.222-.195.767.767 0 0 0-.359-.075c-.251 0-.478.032-.681.095a2.636 2.636 0 0 0-.573.254c-.089.054-.149.077-.179.072-.031-.006-.046-.034-.046-.087v-.604c0-.022 0-.044-.004-.068a.087.087 0 0 1 .013-.059.45.45 0 0 1 .125-.087c.19-.09.383-.164.581-.223s.447-.087.748-.087c.563 0 .98.13 1.25.389.271.259.406.667.406 1.223v1.882c0 .148 0 .303.004.465.002.161.013.303.03.424.01.085-.02.127-.092.127h-.677Zm-1.48-1.906c-.267.143-.401.357-.401.644 0 .201.062.352.184.452.122.101.287.151.493.151a.96.96 0 0 0 .765-.334c.192-.223.288-.569.288-1.041v-.087c-.619 0-1.062.071-1.33.215ZM237.808 38.01a.09.09 0 0 1-.071-.035.124.124 0 0 1-.03-.076v-2.525c0-.381-.062-.656-.188-.826-.125-.169-.322-.254-.589-.254-.367 0-.64.097-.815.29-.175.194-.263.472-.263.838v2.485c0 .069-.034.103-.1.103h-.694a.09.09 0 0 1-.071-.035.124.124 0 0 1-.03-.076v-3.16c0-.202 0-.395-.004-.58a4.857 4.857 0 0 0-.021-.436c-.011-.069.028-.103.117-.103h.66c.062 0 .086.021.075.064l-.008.289a1.93 1.93 0 0 1 .502-.328c.195-.091.42-.136.677-.136.535 0 .943.15 1.225.448.281.299.422.732.422 1.298v2.653c0 .069-.034.103-.1.103h-.694ZM242.147 37.852c-.301.191-.658.286-1.07.286-.112 0-.229-.006-.351-.016s-.241-.024-.355-.04a3.088 3.088 0 0 1-.305-.055 1.564 1.564 0 0 1-.209-.063.531.531 0 0 1-.071-.044c-.025-.018-.034-.049-.029-.091l.05-.516c.006-.053.014-.085.026-.095.01-.01.047-.008.108.008.184.053.375.091.573.115s.375.035.531.035c.245 0 .427-.058.548-.175a.547.547 0 0 0 .18-.405.452.452 0 0 0-.092-.258 1.085 1.085 0 0 0-.31-.267c-.15-.084-.307-.17-.468-.258l-.476-.259a1.363 1.363 0 0 1-.447-.401.929.929 0 0 1-.179-.552c0-.223.042-.415.126-.576.083-.162.195-.297.334-.405.139-.109.299-.188.481-.239a2.14 2.14 0 0 1 .572-.075 4.346 4.346 0 0 1 .665.059c.109.018.207.04.293.063.086.024.152.05.196.076.028.016.043.03.046.043a.228.228 0 0 1-.004.06l-.05.508c-.006.058-.02.091-.042.099a.302.302 0 0 1-.126-.004 3.513 3.513 0 0 0-.359-.103c-.078-.01-.16-.022-.247-.032s-.194-.016-.322-.016c-.229 0-.391.05-.485.151a.516.516 0 0 0-.142.365c0 .085.053.175.158.27.106.096.239.183.401.263.173.079.333.162.481.246.147.085.258.154.33.207.201.138.351.287.451.449.101.162.15.356.15.584 0 .445-.187.797-.56 1.057ZM245.766 38.201a1.593 1.593 0 0 1-1.163-.502v1.422c0 .043-.006.07-.017.084s-.036.02-.075.02h-.694c-.033 0-.058-.006-.075-.02-.016-.013-.025-.041-.025-.083v-5.385c0-.084.042-.126.126-.126h.644c.078 0 .117.042.117.127v.287c.156-.154.331-.274.527-.359s.407-.128.636-.128c.301 0 .57.054.807.162.237.109.437.263.602.464.164.201.29.447.376.737.086.291.129.619.129.983 0 .355-.044.674-.134.96-.089.285-.216.528-.38.729s-.365.355-.602.463a1.888 1.888 0 0 1-.798.162Zm-.092-3.852a.895.895 0 0 0-.41.099 1.006 1.006 0 0 0-.339.293 1.55 1.55 0 0 0-.234.479c-.058.19-.088.409-.088.657 0 .518.098.901.293 1.149a.939.939 0 0 0 .777.372c.346 0 .61-.132.794-.395.184-.264.276-.64.276-1.125 0-.512-.095-.895-.284-1.149a.928.928 0 0 0-.786-.38ZM252.496 37.407c-.2.239-.44.419-.719.544a2.3 2.3 0 0 1-.945.187 2.3 2.3 0 0 1-.945-.183 1.942 1.942 0 0 1-.685-.5c-.184-.212-.322-.458-.414-.739s-.138-.58-.138-.897.046-.617.138-.897c.092-.281.23-.526.414-.735.183-.209.411-.375.681-.496.27-.122.587-.183.949-.183.357 0 .672.061.945.183a1.97 1.97 0 0 1 1.1 1.231c.092.28.138.58.138.897 0 .312-.045.605-.134.877-.09.273-.218.51-.385.711Zm-1.663-3.121c-.217 0-.405.045-.564.135-.158.09-.288.207-.388.353-.101.146-.176.31-.226.492a2.086 2.086 0 0 0 0 1.104c.05.183.125.348.226.496.1.149.23.268.388.358.159.09.347.135.564.135s.406-.046.564-.135c.159-.09.288-.209.389-.358.1-.148.175-.313.226-.496.05-.183.075-.367.075-.552 0-.18-.026-.362-.075-.544a1.605 1.605 0 0 0-.226-.492 1.19 1.19 0 0 0-.389-.357 1.095 1.095 0 0 0-.564-.139ZM256.383 34.421a2.277 2.277 0 0 0-.292-.052.748.748 0 0 0-.623.207c-.103.103-.182.224-.235.362s-.087.286-.104.444c-.017.159-.026.31-.026.453v2.064c0 .074-.033.111-.1.111h-.694c-.061 0-.092-.039-.092-.119v-3.2c0-.17-.002-.339-.008-.508s-.009-.318-.009-.445c0-.047.009-.078.026-.091.017-.013.044-.019.083-.019h.694c.039 0 .062.005.067.016a.14.14 0 0 1 .008.056v.352c.039-.064.09-.128.154-.192s.134-.121.209-.172c.075-.05.152-.09.231-.119a.604.604 0 0 1 .217-.044c.106 0 .202 0 .288.003a.605.605 0 0 1 .272.084c.028.01.044.027.05.051s.009.046.009.067v.596a.142.142 0 0 1-.025.071c-.017.026-.05.034-.101.024ZM259.593 37.947a1.35 1.35 0 0 1-.372.13c-.17.04-.352.06-.548.06-.234 0-.421-.046-.56-.139s-.242-.199-.309-.322a1.173 1.173 0 0 1-.142-.484 9.143 9.143 0 0 1-.025-.754v-1.994h-.694a.097.097 0 0 1-.07-.027.088.088 0 0 1-.03-.068v-.627c0-.026.01-.05.03-.068a.097.097 0 0 1 .07-.027h.694v-1.112c0-.027.011-.05.034-.068s.047-.028.075-.028h.677c.034 0 .06.01.079.028s.03.041.03.068v1.112h.802c.028 0 .051.009.071.027.019.018.03.042.03.068v.627c0 .027-.01.05-.03.068a.101.101 0 0 1-.071.027h-.802v2.049c0 .36.008.588.025.683.022.095.075.154.158.175a.843.843 0 0 0 .284.016c.073-.011.154-.026.243-.044.09-.018.167-.041.235-.067.027-.011.047-.012.058-.004s.022.033.034.075l.066.524c.006.037-.008.069-.042.095ZM262.995 38.01c-.039 0-.064-.004-.075-.012s-.017-.027-.017-.059v-.358c-.139.186-.316.324-.531.417s-.431.139-.648.139c-.228 0-.439-.03-.631-.087a1.34 1.34 0 0 1-.493-.263 1.213 1.213 0 0 1-.322-.432 1.44 1.44 0 0 1-.118-.6c0-.271.05-.507.15-.711.101-.204.258-.374.472-.508.215-.135.489-.236.824-.302a6.372 6.372 0 0 1 1.212-.099c0-.101-.011-.202-.033-.302a.79.79 0 0 0-.113-.271.614.614 0 0 0-.222-.195.767.767 0 0 0-.359-.075c-.251 0-.478.032-.681.095a2.636 2.636 0 0 0-.573.254c-.089.054-.149.077-.179.072-.031-.006-.046-.034-.046-.087v-.604c0-.022 0-.044-.004-.068a.087.087 0 0 1 .013-.059.45.45 0 0 1 .125-.087c.19-.09.383-.164.581-.223s.447-.087.748-.087c.563 0 .98.13 1.25.389.271.259.406.667.406 1.223v1.882c0 .148 0 .303.004.465.002.161.013.303.03.424.01.085-.02.127-.092.127h-.677Zm-1.48-1.906c-.267.143-.401.357-.401.644 0 .201.062.352.184.452.122.101.287.151.493.151a.96.96 0 0 0 .765-.334c.192-.223.288-.569.288-1.041v-.087c-.619 0-1.062.071-1.33.215ZM267.435 37.947a1.35 1.35 0 0 1-.372.13c-.17.04-.352.06-.548.06-.234 0-.421-.046-.56-.139s-.242-.199-.309-.322a1.173 1.173 0 0 1-.142-.484 9.143 9.143 0 0 1-.025-.754v-1.994h-.694a.097.097 0 0 1-.07-.027.088.088 0 0 1-.03-.068v-.627c0-.026.01-.05.03-.068a.097.097 0 0 1 .07-.027h.694v-1.112c0-.027.011-.05.034-.068s.047-.028.075-.028h.677c.034 0 .06.01.079.028s.03.041.03.068v1.112h.802c.028 0 .051.009.071.027.019.018.03.042.03.068v.627c0 .027-.01.05-.03.068a.101.101 0 0 1-.071.027h-.802v2.049c0 .36.008.588.025.683.022.095.075.154.158.175a.843.843 0 0 0 .284.016c.073-.011.154-.026.243-.044.09-.018.167-.041.235-.067.027-.011.047-.012.058-.004s.022.033.034.075l.066.524c.006.037-.008.069-.042.095ZM268.679 32.793c-.162 0-.296-.052-.405-.156s-.163-.231-.163-.38c0-.154.054-.285.163-.392.109-.106.243-.159.405-.159s.299.053.41.159a.525.525 0 0 1 .167.392c0 .15-.056.276-.167.38s-.248.156-.41.156Zm-.359 5.233a.102.102 0 0 1-.071-.028.09.09 0 0 1-.029-.067v-4.178a.09.09 0 0 1 .029-.067.102.102 0 0 1 .071-.028h.703a.1.1 0 0 1 .07.028c.02.018.03.041.03.067v4.178c0 .026-.01.049-.03.067a.1.1 0 0 1-.07.028h-.703ZM273.996 37.407c-.2.239-.44.419-.719.544a2.3 2.3 0 0 1-.945.187 2.3 2.3 0 0 1-.945-.183 1.942 1.942 0 0 1-.685-.5c-.184-.212-.322-.458-.414-.739s-.138-.58-.138-.897.046-.617.138-.897c.092-.281.23-.526.414-.735.183-.209.411-.375.681-.496.27-.122.587-.183.949-.183.357 0 .672.061.945.183a1.97 1.97 0 0 1 1.1 1.231c.092.28.138.58.138.897 0 .312-.045.605-.134.877-.09.273-.218.51-.385.711Zm-1.663-3.121c-.217 0-.405.045-.564.135-.158.09-.288.207-.388.353-.101.146-.176.31-.226.492a2.086 2.086 0 0 0 0 1.104c.05.183.125.348.226.496.1.149.23.268.388.358.159.09.347.135.564.135s.406-.046.564-.135c.159-.09.288-.209.389-.358.1-.148.175-.313.226-.496.05-.183.075-.367.075-.552 0-.18-.026-.362-.075-.544a1.605 1.605 0 0 0-.226-.492 1.19 1.19 0 0 0-.389-.357 1.095 1.095 0 0 0-.564-.139ZM278.553 38.01a.09.09 0 0 1-.071-.035.124.124 0 0 1-.03-.076v-2.525c0-.381-.062-.656-.188-.826-.125-.169-.322-.254-.589-.254-.367 0-.64.097-.815.29-.175.194-.263.472-.263.838v2.485c0 .069-.034.103-.1.103h-.694a.09.09 0 0 1-.071-.035.124.124 0 0 1-.03-.076v-3.16c0-.202 0-.395-.004-.58a4.857 4.857 0 0 0-.021-.436c-.011-.069.028-.103.117-.103h.66c.062 0 .086.021.075.064l-.008.289a1.93 1.93 0 0 1 .502-.328c.195-.091.42-.136.677-.136.535 0 .943.15 1.225.448.281.299.422.732.422 1.298v2.653c0 .069-.034.103-.1.103h-.694ZM287.682 37.955a6.54 6.54 0 0 1-.585.119 5.027 5.027 0 0 1-.794.055c-.474 0-.905-.074-1.292-.223s-.717-.359-.99-.632c-.274-.272-.485-.6-.636-.981s-.226-.804-.226-1.27c0-.461.074-.882.222-1.263.147-.381.358-.708.631-.981s.604-.484.991-.636a3.57 3.57 0 0 1 1.3-.227c.251 0 .495.012.736.036.239.024.456.065.652.123.062.016.098.035.109.059s.014.062.009.115l-.017.588c0 .085-.014.127-.042.127s-.075-.01-.142-.032a4.627 4.627 0 0 0-1.304-.183c-.346 0-.654.056-.924.166a1.914 1.914 0 0 0-1.112 1.188 2.743 2.743 0 0 0-.146.917c0 .328.053.631.158.909.106.278.255.519.447.723.192.203.421.363.685.48.265.116.559.175.882.175.29 0 .536-.012.74-.036a2.78 2.78 0 0 0 .564-.122c.073-.026.12-.034.142-.024s.034.034.034.071l.034.564c.005.058 0 .1-.013.126-.014.026-.052.048-.113.064ZM292.588 37.407c-.2.239-.44.419-.719.544a2.3 2.3 0 0 1-.945.187 2.3 2.3 0 0 1-.945-.183 1.942 1.942 0 0 1-.685-.5c-.184-.212-.322-.458-.414-.739s-.138-.58-.138-.897.046-.617.138-.897c.092-.281.23-.526.414-.735.183-.209.411-.375.681-.496.27-.122.587-.183.949-.183.357 0 .672.061.945.183a1.97 1.97 0 0 1 1.1 1.231c.092.28.138.58.138.897 0 .312-.045.605-.134.877-.09.273-.218.51-.385.711Zm-1.663-3.121c-.217 0-.405.045-.564.135-.158.09-.288.207-.388.353-.101.146-.176.31-.226.492a2.086 2.086 0 0 0 0 1.104c.05.183.125.348.226.496.1.149.23.268.388.358.159.09.347.135.564.135s.406-.046.564-.135c.159-.09.288-.209.389-.358.1-.148.175-.313.226-.496.05-.183.075-.367.075-.552 0-.18-.026-.362-.075-.544a1.605 1.605 0 0 0-.226-.492 1.19 1.19 0 0 0-.389-.357 1.095 1.095 0 0 0-.564-.139ZM296.475 34.421a2.277 2.277 0 0 0-.292-.052.748.748 0 0 0-.623.207c-.103.103-.182.224-.235.362s-.087.286-.104.444c-.017.159-.026.31-.026.453v2.064c0 .074-.033.111-.1.111h-.694c-.061 0-.092-.039-.092-.119v-3.2c0-.17-.002-.339-.008-.508s-.009-.318-.009-.445c0-.047.009-.078.026-.091.017-.013.044-.019.083-.019h.694c.039 0 .062.005.067.016a.14.14 0 0 1 .008.056v.352c.039-.064.09-.128.154-.192s.134-.121.209-.172c.075-.05.152-.09.231-.119a.604.604 0 0 1 .217-.044c.106 0 .202 0 .288.003a.605.605 0 0 1 .272.084c.028.01.044.027.05.051s.009.046.009.067v.596a.142.142 0 0 1-.025.071c-.017.026-.05.034-.101.024ZM299.401 38.201a1.593 1.593 0 0 1-1.163-.502v1.422c0 .043-.006.07-.017.084s-.036.02-.075.02h-.694c-.033 0-.058-.006-.075-.02-.016-.013-.025-.041-.025-.083v-5.385c0-.084.042-.126.126-.126h.644c.078 0 .117.042.117.127v.287c.156-.154.331-.274.527-.359s.407-.128.636-.128c.301 0 .57.054.807.162.237.109.437.263.602.464.164.201.29.447.376.737.086.291.129.619.129.983 0 .355-.044.674-.134.96-.089.285-.216.528-.38.729s-.365.355-.602.463a1.888 1.888 0 0 1-.798.162Zm-.092-3.852a.895.895 0 0 0-.41.099 1.006 1.006 0 0 0-.339.293 1.55 1.55 0 0 0-.234.479c-.058.19-.088.409-.088.657 0 .518.098.901.293 1.149a.939.939 0 0 0 .777.372c.346 0 .61-.132.794-.395.184-.264.276-.64.276-1.125 0-.512-.095-.895-.284-1.149a.928.928 0 0 0-.786-.38ZM306.131 37.407c-.2.239-.44.419-.719.544a2.3 2.3 0 0 1-.945.187 2.3 2.3 0 0 1-.945-.183 1.942 1.942 0 0 1-.685-.5c-.184-.212-.322-.458-.414-.739s-.138-.58-.138-.897.046-.617.138-.897c.092-.281.23-.526.414-.735.183-.209.411-.375.681-.496.27-.122.587-.183.949-.183.357 0 .672.061.945.183a1.97 1.97 0 0 1 1.1 1.231c.092.28.138.58.138.897 0 .312-.045.605-.134.877-.09.273-.218.51-.385.711Zm-1.663-3.121c-.217 0-.405.045-.564.135-.158.09-.288.207-.388.353-.101.146-.176.31-.226.492a2.086 2.086 0 0 0 0 1.104c.05.183.125.348.226.496.1.149.23.268.388.358.159.09.347.135.564.135s.406-.046.564-.135c.159-.09.288-.209.389-.358.1-.148.175-.313.226-.496.05-.183.075-.367.075-.552 0-.18-.026-.362-.075-.544a1.605 1.605 0 0 0-.226-.492 1.19 1.19 0 0 0-.389-.357 1.095 1.095 0 0 0-.564-.139ZM310.018 34.421a2.277 2.277 0 0 0-.292-.052.748.748 0 0 0-.623.207c-.103.103-.182.224-.235.362s-.087.286-.104.444c-.017.159-.026.31-.026.453v2.064c0 .074-.033.111-.1.111h-.694c-.061 0-.092-.039-.092-.119v-3.2c0-.17-.002-.339-.008-.508s-.009-.318-.009-.445c0-.047.009-.078.026-.091.017-.013.044-.019.083-.019h.694c.039 0 .062.005.067.016a.14.14 0 0 1 .008.056v.352c.039-.064.09-.128.154-.192s.134-.121.209-.172c.075-.05.152-.09.231-.119a.604.604 0 0 1 .217-.044c.106 0 .202 0 .288.003a.605.605 0 0 1 .272.084c.028.01.044.027.05.051s.009.046.009.067v.596a.142.142 0 0 1-.025.071c-.017.026-.05.034-.101.024ZM313.471 38.01c-.039 0-.064-.004-.075-.012s-.017-.027-.017-.059v-.358c-.139.186-.316.324-.531.417s-.431.139-.648.139c-.228 0-.439-.03-.631-.087a1.34 1.34 0 0 1-.493-.263 1.213 1.213 0 0 1-.322-.432 1.44 1.44 0 0 1-.118-.6c0-.271.05-.507.15-.711.101-.204.258-.374.472-.508.215-.135.489-.236.824-.302a6.372 6.372 0 0 1 1.212-.099c0-.101-.011-.202-.033-.302a.79.79 0 0 0-.113-.271.614.614 0 0 0-.222-.195.767.767 0 0 0-.359-.075c-.251 0-.478.032-.681.095a2.636 2.636 0 0 0-.573.254c-.089.054-.149.077-.179.072-.031-.006-.046-.034-.046-.087v-.604c0-.022 0-.044-.004-.068a.087.087 0 0 1 .013-.059.45.45 0 0 1 .125-.087c.19-.09.383-.164.581-.223s.447-.087.748-.087c.563 0 .98.13 1.25.389.271.259.406.667.406 1.223v1.882c0 .148 0 .303.004.465.002.161.013.303.03.424.01.085-.02.127-.092.127h-.677Zm-1.48-1.906c-.267.143-.401.357-.401.644 0 .201.062.352.184.452.122.101.287.151.493.151a.96.96 0 0 0 .765-.334c.192-.223.288-.569.288-1.041v-.087c-.619 0-1.062.071-1.33.215ZM317.91 37.947a1.35 1.35 0 0 1-.372.13c-.17.04-.352.06-.548.06-.234 0-.421-.046-.56-.139s-.242-.199-.309-.322a1.173 1.173 0 0 1-.142-.484 9.143 9.143 0 0 1-.025-.754v-1.994h-.694a.097.097 0 0 1-.07-.027.088.088 0 0 1-.03-.068v-.627c0-.026.01-.05.03-.068a.097.097 0 0 1 .07-.027h.694v-1.112c0-.027.011-.05.034-.068s.047-.028.075-.028h.677c.034 0 .06.01.079.028s.03.041.03.068v1.112h.802c.028 0 .051.009.071.027.019.018.03.042.03.068v.627c0 .027-.01.05-.03.068a.101.101 0 0 1-.071.027h-.802v2.049c0 .36.008.588.025.683.022.095.075.154.158.175a.843.843 0 0 0 .284.016c.073-.011.154-.026.243-.044.09-.018.167-.041.235-.067.027-.011.047-.012.058-.004s.022.033.034.075l.066.524c.006.037-.008.069-.042.095ZM319.155 32.793c-.162 0-.296-.052-.405-.156s-.163-.231-.163-.38c0-.154.054-.285.163-.392.109-.106.243-.159.405-.159s.299.053.41.159a.525.525 0 0 1 .167.392c0 .15-.056.276-.167.38s-.248.156-.41.156Zm-.359 5.233a.102.102 0 0 1-.071-.028.09.09 0 0 1-.029-.067v-4.178a.09.09 0 0 1 .029-.067.102.102 0 0 1 .071-.028h.703a.1.1 0 0 1 .07.028c.02.018.03.041.03.067v4.178c0 .026-.01.049-.03.067a.1.1 0 0 1-.07.028h-.703ZM324.472 37.407c-.2.239-.44.419-.719.544a2.3 2.3 0 0 1-.945.187 2.3 2.3 0 0 1-.945-.183 1.942 1.942 0 0 1-.685-.5c-.184-.212-.322-.458-.414-.739s-.138-.58-.138-.897.046-.617.138-.897c.092-.281.23-.526.414-.735.183-.209.411-.375.681-.496.27-.122.587-.183.949-.183.357 0 .672.061.945.183a1.97 1.97 0 0 1 1.1 1.231c.092.28.138.58.138.897 0 .312-.045.605-.134.877-.09.273-.218.51-.385.711Zm-1.663-3.121c-.217 0-.405.045-.564.135-.158.09-.288.207-.388.353-.101.146-.176.31-.226.492a2.086 2.086 0 0 0 0 1.104c.05.183.125.348.226.496.1.149.23.268.388.358.159.09.347.135.564.135s.406-.046.564-.135c.159-.09.288-.209.389-.358.1-.148.175-.313.226-.496.05-.183.075-.367.075-.552 0-.18-.026-.362-.075-.544a1.605 1.605 0 0 0-.226-.492 1.19 1.19 0 0 0-.389-.357 1.095 1.095 0 0 0-.564-.139ZM329.028 38.01a.09.09 0 0 1-.071-.035.124.124 0 0 1-.03-.076v-2.525c0-.381-.062-.656-.188-.826-.125-.169-.322-.254-.589-.254-.367 0-.64.097-.815.29-.175.194-.263.472-.263.838v2.485c0 .069-.034.103-.1.103h-.694a.09.09 0 0 1-.071-.035.124.124 0 0 1-.03-.076v-3.16c0-.202 0-.395-.004-.58a4.857 4.857 0 0 0-.021-.436c-.011-.069.028-.103.117-.103h.66c.062 0 .086.021.075.064l-.008.289a1.93 1.93 0 0 1 .502-.328c.195-.091.42-.136.677-.136.535 0 .943.15 1.225.448.281.299.422.732.422 1.298v2.653c0 .069-.034.103-.1.103h-.694Z" style="fill:#004ea2"/></svg>